<?xml version="1.0" encoding="utf-8"?>
<svg width="229" height="238" viewBox="0 0 229 238" xmlns="http://www.w3.org/2000/svg">
<rect id="frame" x="0" y="0" width="229" height="238" fill="#f5f5f5" stroke="none" stroke-width="0"/>

<!-- Association ADMINISTRER -->
<g class="page_0_vtb6Isyu diagram_page" visibility="visible">
	<line x1="169" y1="195" x2="169" y2="77" stroke="#bf812d" stroke-width="2"/>
	<text x="174" y="153" fill="#01665e" font-family="Verdana" font-size="12">0,1</text>
	<line x1="49" y1="77" x2="169" y2="77" stroke="#bf812d" stroke-width="2"/>
	<text x="91" y="94" fill="#01665e" font-family="Verdana" font-size="12">1,1</text>
	<g>
		<path d="M206 52 a14 14 90 0 1 14 14 V77 h-102 V66 a14 14 90 0 1 14 -14" fill="#dfc27d" stroke="#dfc27d" stroke-width="0"/>
		<path d="M220 77 v11 a14 14 90 0 1 -14 14 H132 a14 14 90 0 1 -14 -14 V77 H102" fill="#f6e8c3" stroke="#f6e8c3" stroke-width="0"/>
		<rect x="118" y="52" width="102" height="50" fill="none" rx="14" stroke="#bf812d" stroke-width="2"/>
		<line x1="118" y1="77" x2="220" y2="77" stroke="#bf812d" stroke-width="1"/>
		<text x="125" y="69.75" fill="#000" font-family="Verdana" font-size="12">ADMINISTRER</text>
	</g>
</g>

<!-- Association RECENSER -->
<g class="page_0_vtb6Isyu diagram_page" visibility="visible">
	<line x1="49" y1="77" x2="49" y2="195" stroke="#bf812d" stroke-width="2"/>
	<text x="54" y="162" fill="#01665e" font-family="Verdana" font-size="12">0,N</text>
	<line x1="169" y1="195" x2="49" y2="195" stroke="#bf812d" stroke-width="2"/>
	<text x="116" y="212" fill="#01665e" font-family="Verdana" font-size="12">0,1</text>
	<g>
		<path d="M75 170 a14 14 90 0 1 14 14 V195 h-80 V184 a14 14 90 0 1 14 -14" fill="#dfc27d" stroke="#dfc27d" stroke-width="0"/>
		<path d="M89 195 v11 a14 14 90 0 1 -14 14 H23 a14 14 90 0 1 -14 -14 V195 H80" fill="#f6e8c3" stroke="#f6e8c3" stroke-width="0"/>
		<rect x="9" y="170" width="80" height="50" fill="none" rx="14" stroke="#bf812d" stroke-width="2"/>
		<line x1="9" y1="195" x2="89" y2="195" stroke="#bf812d" stroke-width="1"/>
		<text x="16" y="187.75" fill="#000" font-family="Verdana" font-size="12">RECENSER</text>
	</g>
</g>

<!-- Entity EMPLOYE -->
<g class="page_0_vtb6Isyu diagram_page" visibility="visible">
	<g>
		<rect x="12" y="9" width="74" height="25" fill="#80cdc1" stroke="#80cdc1" stroke-width="0" opacity="1"/>
		<rect x="12" y="34" width="74" height="111" fill="#c7eae5" stroke="#c7eae5" stroke-width="0" opacity="1"/>
		<rect x="12" y="9" width="74" height="136" fill="none" stroke="#35978f" stroke-width="2" opacity="1"/>
		<line x1="12" y1="34" x2="86" y2="34" stroke="#35978f" stroke-width="1"/>
	</g>
	<text x="21" y="26.75" fill="#000" font-family="Verdana" font-size="12">EMPLOYE</text>
	<text x="17" y="51.8" fill="#000" font-family="Verdana" font-size="12">idEmploye</text>
	<line x1="17" y1="54" x2="80" y2="54" stroke="#000" stroke-width="1"/>
	<text x="17" y="68.8" fill="#000" font-family="Verdana" font-size="12">nom</text>
	<text x="17" y="85.8" fill="#000" font-family="Verdana" font-size="12">prénom</text>
	<text x="17" y="102.8" fill="#000" font-family="Verdana" font-size="12">Password</text>
	<text x="17" y="119.8" fill="#000" font-family="Verdana" font-size="12">mail</text>
	<text x="17" y="136.8" fill="#000" font-family="Verdana" font-size="12">estAdmin</text>
</g>

<!-- Entity LIGUE -->
<g class="page_0_vtb6Isyu diagram_page" visibility="visible">
	<g>
		<rect x="142" y="161" width="54" height="25" fill="#80cdc1" stroke="#80cdc1" stroke-width="0" opacity="1"/>
		<rect x="142" y="186" width="54" height="43" fill="#c7eae5" stroke="#c7eae5" stroke-width="0" opacity="1"/>
		<rect x="142" y="161" width="54" height="68" fill="none" stroke="#35978f" stroke-width="2" opacity="1"/>
		<line x1="142" y1="186" x2="196" y2="186" stroke="#35978f" stroke-width="1"/>
	</g>
	<text x="150" y="178.75" fill="#000" font-family="Verdana" font-size="12">LIGUE</text>
	<text x="147" y="203.8" fill="#000" font-family="Verdana" font-size="12">idLigue</text>
	<line x1="147" y1="206" x2="191" y2="206" stroke="#000" stroke-width="1"/>
	<text x="147" y="220.8" fill="#000" font-family="Verdana" font-size="12">nom</text>
</g>
</svg>